PathFileType	4	(X/Y/Z)	C:/Users/opensim2020/Desktop/walking_exp_matlab/subject06_walking18_straight_03.trc																																																																																																																																											
DataRate	CameraRate	NumFrames	NumMarkers	Units	OrigDataRate	OrigDataStartFrame	OrigNumFrames																																																																																																																																							
100	100	6	47	mm	100	3546	309																																																																																																																																							
Frame#	Time	LFHD			RFHD			LBHD			RBHD			C7			T10			CLAV			STRN			RBAK			LSHO			LUPA			LELB			LFRM			LWRA			LWRB			LFIN			RSHO			RUPA			RELB			RFRM			RWRA			RWRB			RFIN			LASI			RASI			LPSI			RPSI			LTHI			LKNE			LTIB			LANK			LHEE			LTOE			RTHI			RKNE			RTIB			RANK			RHEE			RTOE			*39			*40			*41			*42			*43			*44			*45			*46		
		X1	Y1	Z1	X2	Y2	Z2	X3	Y3	Z3	X4	Y4	Z4	X5	Y5	Z5	X6	Y6	Z6	X7	Y7	Z7	X8	Y8	Z8	X9	Y9	Z9	X10	Y10	Z10	X11	Y11	Z11	X12	Y12	Z12	X13	Y13	Z13	X14	Y14	Z14	X15	Y15	Z15	X16	Y16	Z16	X17	Y17	Z17	X18	Y18	Z18	X19	Y19	Z19	X20	Y20	Z20	X21	Y21	Z21	X22	Y22	Z22	X23	Y23	Z23	X24	Y24	Z24	X25	Y25	Z25	X26	Y26	Z26	X27	Y27	Z27	X28	Y28	Z28	X29	Y29	Z29	X30	Y30	Z30	X31	Y31	Z31	X32	Y32	Z32	X33	Y33	Z33	X34	Y34	Z34	X35	Y35	Z35	X36	Y36	Z36	X37	Y37	Z37	X38	Y38	Z38	X39	Y39	Z39	X40	Y40	Z40	X41	Y41	Z41	X42	Y42	Z42	X43	Y43	Z43	X44	Y44	Z44	X45	Y45	Z45	X46	Y46	Z46	X47	Y47	Z47
																																																																																																																																														
232	2.31	713.53314	1674.28894	1417.2019	718.60699	1662.21753	1548.74268	579.97162	1619.22498	1420.4386	585.89648	1612.14014	1550.05005	581.60114	1461.87109	1476.71875	543.93787	1133.53516	1485.22876	690.18555	1383.58875	1472.53284	728.16461	1207.97449	1466.88501	511.05905	1292.55896	1562.08667	629.56458	1415.24622	1313.13965	607.6842	1214.39844	1239.85767	593.63788	1103.54089	1226.8429	612.16809	955.55658	1196.39331	678.12823	839.98792	1224.42114	613.35785	836.2746	1196.34412	653.11615	755.07648	1187.25183	653.70148	1417.02856	1634.00061	640.22412	1217.30005	1725.24268	666.94397	1098.14771	1735.87317	715.54004	988.18793	1744.82629	809.52045	876.15485	1697.24292	763.19214	859.14844	1742.17163	822.21423	799.39832	1736.55383	720.14514	976.8324	1371.43262	718.95056	974.39746	1591.37427	561.63531	1000.68036	1396.61108	567.19861	1002.31671	1565.04028	695.04565	663.42511	1295.84766	737.88867	505.20956	1318.39148	726.65424	251.47906	1319.56335	746.03442	78.33625	1352.73816	710.83124	59.40998	1402.0343	890.42352	59.8904	1347.0459	643.84814	638.83093	1630.58167	635.77966	513.41553	1605.17065	558.93958	255.83578	1591.57751	530.77203	72.89785	1534.50012	490.58203	51.08111	1489.20898	683.98059	36.77415	1529.8584	614.87659	1711.53699	1479.90857	NaN	NaN	NaN	NaN	NaN	NaN	NaN	NaN	NaN	NaN	NaN	NaN	NaN	NaN	NaN	NaN	NaN	NaN	NaN	NaN	NaN
233	2.32	719.44977	1673.52698	1416.93933	724.55347	1661.57617	1548.55652	585.86115	1618.49463	1420.23914	591.97021	1611.45007	1549.90198	587.42822	1461.16541	1476.65942	549.70026	1132.81641	1485.21362	695.98938	1382.81238	1472.52478	733.85748	1207.21472	1467.12122	516.82513	1291.96118	1562.09985	635.28473	1414.474	1313.10168	611.43243	1213.85864	1240.15967	596.71448	1103.02368	1227.06091	613.9165	954.90002	1196.51172	678.94788	838.80933	1224.07227	613.73126	835.62494	1196.31372	653.02856	754.13617	1186.76379	659.46051	1416.49707	1633.95691	646.21582	1216.85901	1725.45044	673.06708	1097.71436	1736.06042	722.94836	988.35767	1744.94849	818.09436	877.58447	1696.9574	772.11023	860.00043	1741.93091	831.65106	800.81854	1736.03137	725.99225	976.27173	1371.72363	724.46906	973.66089	1591.7135	567.45172	999.98535	1396.50354	572.82727	1001.50433	1564.93652	701.33685	663.10516	1295.56262	745.18976	505.30252	1318.29846	740.99615	251.25391	1319.14673	765.50159	78.62569	1352.24072	730.90863	58.45434	1400.66968	910.68835	63.40617	1348.58167	648.49536	638.13226	1630.29846	639.52655	512.70502	1604.79468	561.03314	255.6492	1591.34814	531.23254	73.01929	1534.19861	490.78915	51.29947	1488.95667	684.35303	36.81338	1529.9458	620.8363	1710.82886	1479.61621	NaN	NaN	NaN	NaN	NaN	NaN	NaN	NaN	NaN	NaN	NaN	NaN	NaN	NaN	NaN	NaN	NaN	NaN	NaN	NaN	NaN
234	2.33	725.34814	1672.70532	1416.57446	730.50507	1660.82288	1548.18958	591.74896	1617.66174	1419.9657	597.91937	1610.75391	1549.6687	593.36377	1460.36646	1476.39282	555.41412	1131.94604	1485.23389	701.83698	1382.0365	1472.43835	739.55853	1206.41162	1467.21851	522.56232	1291.38867	1562.08276	640.99072	1413.56311	1313.00793	615.65887	1213.08069	1240.44556	599.9007	1102.51563	1227.08484	615.43738	954.27277	1196.36865	679.75854	837.57074	1223.75964	614.64038	834.93341	1196.24158	652.68109	752.97064	1186.85193	665.31384	1415.86975	1633.84106	652.16626	1216.29199	1725.57214	679.63971	1097.43298	1736.5083	730.15094	988.44873	1744.86108	826.57501	878.87067	1696.62427	780.78998	860.65247	1741.61414	841.05286	802.25513	1735.51038	731.8161	975.65533	1371.96863	730.05225	972.88831	1591.91199	573.31976	999.24829	1396.32422	578.40985	1000.66193	1564.82739	707.97003	662.69812	1295.12805	752.7702	505.45572	1318.198	754.93567	251.22659	1318.72681	784.25763	79.17396	1351.82422	749.99121	57.72371	1399.76013	930.02307	67.39767	1350.17871	653.1391	637.45959	1630.00854	643.2569	512.0918	1604.75708	562.9906	255.47734	1591.11438	531.63531	73.1387	1533.92126	490.89929	51.5252	1488.67493	684.53577	36.67168	1529.9032	626.82843	1710.06421	1479.25403	NaN	NaN	NaN	NaN	NaN	NaN	NaN	NaN	NaN	NaN	NaN	NaN	NaN	NaN	NaN	NaN	NaN	NaN	NaN	NaN	NaN
235	2.34	731.33679	1671.82104	1416.20679	736.48779	1660.08704	1547.86377	597.7049	1616.81042	1419.61011	603.91101	1609.99365	1549.27356	599.21545	1459.64697	1476.22485	561.16077	1131.20544	1485.20056	707.74084	1381.16125	1472.28967	745.32214	1205.54102	1467.33606	528.33356	1290.67249	1562.00647	646.75281	1412.57642	1312.81897	619.87244	1212.38977	1240.26221	603.28033	1101.9082	1227.11768	617.50275	953.52313	1196.32861	680.78778	836.27167	1223.47571	615.27667	834.22406	1196.35828	652.9632	751.92896	1186.59839	671.19843	1415.21362	1633.71326	658.12488	1215.74756	1725.59338	685.98645	1096.9834	1736.71729	737.55359	988.5838	1745.00696	834.85785	880.02625	1696.2196	789.36865	861.24469	1741.255	850.06641	803.23773	1734.86328	737.66125	975.04968	1372.07593	735.72247	972.10406	1592.03455	579.08746	998.51526	1396.17615	584.08563	999.77716	1564.77942	714.82312	662.28619	1294.62939	760.32446	505.62769	1318.24609	768.50482	251.42079	1318.27625	802.37402	79.93449	1351.41284	768.17487	57.66465	1398.97546	948.62073	71.38734	1351.39099	657.83691	636.78894	1629.64465	647.22717	511.54962	1604.42493	564.93683	255.24182	1590.8031	532.04834	73.30221	1533.60498	491.15878	51.80141	1488.40613	684.73816	36.51373	1529.9137	632.75806	1709.26538	1478.87573	NaN	NaN	NaN	NaN	NaN	NaN	NaN	NaN	NaN	NaN	NaN	NaN	NaN	NaN	NaN	NaN	NaN	NaN	NaN	NaN	NaN
236	2.35	737.31543	1670.94702	1415.771	742.50714	1659.31055	1547.38647	603.72479	1615.90259	1419.18604	609.88824	1609.14893	1548.87	605.14807	1458.84497	1475.98779	566.80505	1130.50867	1485.15234	713.6618	1380.31934	1472.11414	751.11212	1204.66431	1467.29407	534.18896	1289.96594	1561.87476	652.59113	1411.5791	1312.55872	624.39001	1211.58228	1240.26416	606.73425	1101.16064	1227.3866	619.54199	952.65198	1196.43652	682.06934	834.92694	1223.23059	616.58014	833.43707	1196.26868	653.30219	750.83246	1186.5426	677.14526	1414.47302	1633.52356	664.07422	1215.0127	1725.51965	692.26886	1096.46802	1736.84534	744.5882	988.46826	1744.83679	843.02283	881.06586	1695.83179	797.81195	861.87421	1740.99817	859.06354	804.49854	1734.35327	743.4892	974.45117	1372.06824	741.47412	971.13776	1592.18079	584.84552	997.70856	1396.05713	589.77917	998.86652	1564.7312	721.86041	661.82867	1294.17163	768.10632	505.80658	1318.40491	781.68103	251.64569	1317.96399	819.63782	80.87685	1350.98792	785.42566	58.01435	1398.4574	966.35907	75.10728	1352.20862	662.60632	636.09741	1629.23328	651.1759	510.85941	1604.24109	566.93616	255.11667	1590.48267	532.48499	73.4701	1533.27954	491.31296	52.20167	1488.15417	684.96533	36.28687	1529.81543	638.7431	1708.40063	1478.39771	NaN	NaN	NaN	NaN	NaN	NaN	NaN	NaN	NaN	NaN	NaN	NaN	NaN	NaN	NaN	NaN	NaN	NaN	NaN	NaN	NaN
237	2.36	743.31805	1670.04333	1415.21289	748.57214	1658.51782	1546.90527	609.74054	1614.9552	1418.71814	615.974	1608.33765	1548.36157	611.13098	1458.05408	1475.677	572.59857	1129.61938	1485.12732	719.5899	1379.36401	1471.77283	756.92511	1203.7594	1467.1665	540.05933	1289.19165	1561.72021	658.48004	1410.52344	1312.25134	629.05756	1210.64734	1240.36511	610.33569	1100.54761	1227.35266	621.84082	951.86829	1196.46533	683.41901	833.54413	1223.07495	617.83929	832.53552	1196.50916	654.03271	749.75427	1186.4447	683.17352	1413.71985	1633.28113	670.04865	1214.31934	1725.39673	698.3252	1095.79504	1736.76086	751.711	988.32202	1744.72852	851.00183	881.99359	1695.32104	806.13611	862.37195	1740.61011	867.83142	805.59906	1733.8031	749.36658	973.86005	1371.92004	747.29565	970.40326	1591.9209	590.61725	996.75787	1395.87488	595.56049	997.97089	1564.62524	728.98627	661.33734	1293.88757	776.01715	506.03372	1318.56323	794.49518	251.96313	1317.64038	836.27368	81.93552	1350.54626	802.18988	58.43467	1397.8728	983.1958	78.31943	1352.63806	667.38971	635.41248	1628.78052	655.22369	510.21298	1603.93677	569.04846	254.97014	1590.12402	532.88251	73.70753	1533.01282	491.54404	52.73949	1487.88782	685.23627	36.24935	1529.78076	644.77661	1707.49695	1477.8208	NaN	NaN	NaN	NaN	NaN	NaN	NaN	NaN	NaN	NaN	NaN	NaN	NaN	NaN	NaN	NaN	NaN	NaN	NaN	NaN	NaN
